<svg width="20" height="20" viewBox="0 0 20 20" fill="none" xmlns="http://www.w3.org/2000/svg">
<path fill-rule="evenodd" clip-rule="evenodd" d="M8.79941 2.20005C7.04899 2.20005 5.37025 2.89541 4.13251 4.13315C2.89477 5.37089 2.19941 7.04962 2.19941 8.80005C2.19941 10.5505 2.89477 12.2292 4.13251 13.467C5.37025 14.7047 7.04899 15.4001 8.79941 15.4001C10.5498 15.4001 12.2286 14.7047 13.4663 13.467C14.7041 12.2292 15.3994 10.5505 15.3994 8.80005C15.3994 7.04962 14.7041 5.37089 13.4663 4.13315C12.2286 2.89541 10.5498 2.20005 8.79941 2.20005ZM0.399414 8.80005C0.399527 7.45685 0.721749 6.13327 1.33905 4.94032C1.95635 3.74738 2.85073 2.71986 3.94716 1.94397C5.04359 1.16807 6.3101 0.666418 7.64045 0.481095C8.9708 0.295771 10.3262 0.432179 11.5929 0.878876C12.8597 1.32557 14.0008 2.06953 14.9207 3.04835C15.8405 4.02716 16.5122 5.21229 16.8794 6.50432C17.2466 7.79635 17.2986 9.15759 17.0311 10.4739C16.7636 11.7902 16.1843 13.0231 15.3418 14.0693L19.3354 18.064C19.4238 18.1464 19.4948 18.2458 19.544 18.3562C19.5931 18.4666 19.6196 18.5858 19.6217 18.7066C19.6239 18.8275 19.6016 18.9475 19.5564 19.0596C19.5111 19.1716 19.4437 19.2734 19.3583 19.3589C19.2728 19.4444 19.171 19.5117 19.0589 19.557C18.9469 19.6023 18.8268 19.6245 18.706 19.6224C18.5851 19.6202 18.466 19.5938 18.3556 19.5446C18.2452 19.4954 18.1458 19.4245 18.0634 19.3361L14.0686 15.3425C12.8345 16.3365 11.3443 16.9612 9.77022 17.1443C8.19614 17.3275 6.60236 17.0616 5.17295 16.3775C3.74354 15.6933 2.53682 14.6188 1.69214 13.278C0.847469 11.9372 0.399306 10.3847 0.399414 8.80005Z" fill="#646D89"/>
</svg>
